# xmcd
#
# Track frame offsets: 
#        150
#        25948
#        56218
#        75865
#        102350
#        127805
#        146544
#        177982
#        203001
#        218547
#        241520
#        265067
#        276761
#
# Disc length: 3979 seconds
#
# Revision: 0
# Processed by: cddbd v1.5.2PL0 Copyright (c) Steve Scherf et al.
# Submitted via: ExactAudioCopy v1.3
#
DISCID=a60f890d
DTITLE=Warren Haynes - Atomic Studios Clinton NJ - solo
DYEAR=1997
DGENRE=Acoustic
TTITLE0=The Big Muddy
TTITLE1=Pananonica's Dream
TTITLE2=End of the Line
TTITLE3=Before You Came
TTITLE4=Goin Down Slow
TTITLE5=Loaded Dice
TTITLE6=Indian Sunset
TTITLE7=Gamblers Roll
TTITLE8=Sad and Deep As You
TTITLE9=Soulshine
TTITLE10=I'll Be the One
TTITLE11=Grinnin'
TTITLE12=Old Friend - Late Show
EXTD=
EXTT0=
EXTT1=
EXTT2=
EXTT3=
EXTT4=
EXTT5=
EXTT6=
EXTT7=
EXTT8=
EXTT9=
EXTT10=
EXTT11=
EXTT12=
PLAYORDER=
